<?xml version="1.0" encoding="UTF-8"?>
<svg id="Layer_1" data-name="Layer 1" xmlns="http://www.w3.org/2000/svg" viewBox="0 0 1029.71 245.58">
  <defs>
    <style>
      .cls-1 {
        fill: #231f20;
      }

      .cls-2 {
        fill: #010101;
      }
    </style>
  </defs>
  <g>
    <g>
      <path d="M92.62,100.56c.69-3.13,.09-5.9-2.15-8.03-2.01-1.9-4.27-3.55-6.53-5.16-4.98-3.55-10.13-6.87-15.02-10.55-3.15-2.37-5.65-5.46-6.64-9.4-1.83-7.26,.2-13.66,5.03-19.13,5.32-6.04,12.17-7.81,19.96-6.44,2.63,.46,5.26,.93,7.9,1.33,1.18,.18,2.13-.28,2.91-1.25,.34-.42,1-.58,1.77-1v18.28h-1.73c-1.09-3.29-2.49-6.39-4.85-9-4.43-4.89-11.62-6.38-16.83-3.41-4.79,2.73-6.23,8.94-2.67,13.16,2.05,2.44,4.66,4.48,7.26,6.37,4.95,3.6,10.22,6.77,15.1,10.45,5.45,4.1,8.67,9.54,8.37,16.65-.14,3.32-.82,5.47-3.45,10.26,1,.95,2.1,1.84,3.02,2.89,3.36,3.8,4.59,8.45,4.66,13.34,.14,10.09,.04,20.18,.07,30.27,0,1.16,.14,2.32,.34,3.46,.32,1.77,1.38,2.86,3.15,3,1.95,.15,3.92,.03,6.19,.03,.3,.9,.73,2.15,1.17,3.46-5.99,3.48-12.24,5.21-19.09,3.75-2.6-.55-4.37-2.22-5.44-4.65-1.44-3.25-1.88-6.69-2.13-10.19-.05-.68-.24-1.4-.55-2-3-5.81-7.54-9.31-14.32-9.24-5.43,.05-9.29,3.32-9.96,8.5-.51,3.9,1.54,6.82,4.4,8.98,4.19,3.18,8.7,5.91,12.96,8.99,3.36,2.43,6.89,4.76,9.74,7.71,9.68,10.02,6.3,25.21-6.58,30.56-6.7,2.78-13.52,2.5-20.39,.82-1.77-.43-3.54-.84-5.31-1.23-1.66-.37-2.93,.15-3.95,1.56-.33,.45-1.06,.61-1.7,.95v-19.79h2.01c.66,3.61,1.98,6.94,4.37,9.81,4.35,5.23,11.76,7.64,17.9,5.73,6.01-1.87,9.25-8,6.64-13.06-.91-1.77-2.43-3.43-4.06-4.6-4.63-3.34-9.57-6.28-14.19-9.64-2.93-2.13-5.81-4.48-8.18-7.2-5.08-5.8-5.28-14.1-.96-21.53,4.84-8.33,13.48-11.95,23.6-9.91,2.03,.41,4.05,.85,6.09,1.19,.73,.12,1.49,.02,2.32,.02,0-1.71,.01-3.23,0-4.74-.05-4.76-.09-9.53-.2-14.29-.02-1.1-.2-2.22-.46-3.3-1.28-5.37-4.03-7.65-9.58-7.97-2.94-.17-5.75,.22-8.06,1.95,.48,1.92,1.14,3.69,1.35,5.52,.72,6.25-3.49,10.54-9.8,10.13-7.11-.46-10.66-7.7-6.72-13.77,2.49-3.83,6.34-5.74,10.5-7.05,7.36-2.32,14.91-2.64,22.71-1.62Z"/>
      <path d="M110.06,59.64c-4.95,0-8.88-3.88-8.9-8.81-.02-4.97,3.96-8.91,8.98-8.9,4.91,.01,8.9,4.04,8.82,8.91-.09,5-3.93,8.8-8.9,8.8Z"/>
      <path d="M45.28,203.86c-4.97,0-8.9-3.86-8.93-8.79-.03-4.97,3.96-8.99,8.93-8.97,4.94,.02,8.84,3.95,8.83,8.89,0,4.98-3.86,8.85-8.83,8.86Z"/>
    </g>
    <path class="cls-1" d="M78.01,245.58c-20.84,0-40.43-8.11-55.16-22.85C8.11,208,0,188.41,0,167.58V78C0,57.17,8.11,37.58,22.85,22.85,37.58,8.11,57.17,0,78,0s40.43,8.11,55.16,22.85c14.73,14.73,22.85,34.32,22.85,55.16v89.57c0,20.84-8.11,40.42-22.85,55.16-14.73,14.73-34.32,22.85-55.16,22.85Zm0-244.96C57.33,.62,37.9,8.67,23.28,23.28,8.67,37.9,.62,57.33,.62,78v89.57c0,20.67,8.05,40.1,22.67,54.72,14.62,14.62,34.05,22.67,54.72,22.67s40.1-8.05,54.72-22.67,22.67-34.05,22.67-54.72V78c0-20.67-8.05-40.1-22.67-54.72C118.11,8.67,98.68,.62,78,.62Zm0,240.02c-40.28,0-73.06-32.77-73.06-73.06V78C4.95,37.72,37.72,4.95,78.01,4.95s73.06,32.77,73.06,73.06v89.57c0,40.28-32.77,73.06-73.06,73.06Zm0-235.07C38.06,5.57,5.57,38.06,5.57,78v89.57c0,39.94,32.5,72.44,72.44,72.44s72.44-32.5,72.44-72.44V78c0-39.94-32.5-72.44-72.44-72.44Z"/>
  </g>
  <g>
    <g>
      <path class="cls-2" d="M204.65,78.68v19.27c0,3.76,.23,6.13,.69,7.1,.46,.97,1.28,1.75,2.46,2.33,1.18,.58,3.34,.87,6.48,.87v1.9h-35.32v-1.9c3.21,0,5.39-.3,6.54-.9,1.14-.6,1.95-1.38,2.41-2.33,.46-.96,.69-3.31,.69-7.07V52.84c0-3.76-.23-6.13-.69-7.1-.46-.97-1.27-1.75-2.44-2.33-1.16-.58-3.33-.87-6.51-.87v-1.9h30.3c9.98,0,17.14,1.78,21.48,5.33,4.34,3.55,6.51,8,6.51,13.33,0,4.51-1.4,8.37-4.2,11.59-2.8,3.21-6.66,5.4-11.59,6.56-3.31,.82-8.92,1.23-16.81,1.23Zm0-34.04v30.04c1.13,.07,1.98,.1,2.56,.1,4.17,0,7.38-1.24,9.64-3.72,2.26-2.48,3.38-6.31,3.38-11.51s-1.13-8.94-3.38-11.33c-2.26-2.39-5.62-3.59-10.1-3.59h-2.1Z"/>
      <path class="cls-2" d="M306.66,40.64v18.81h-1.85c-1.09-4.34-2.31-7.46-3.64-9.36-1.33-1.9-3.16-3.41-5.48-4.54-1.3-.62-3.57-.92-6.82-.92h-5.18v53.62c0,3.55,.2,5.78,.59,6.66,.39,.89,1.16,1.67,2.31,2.33,1.14,.67,2.71,1,4.69,1h2.31v1.9h-36.4v-1.9h2.31c2.02,0,3.64-.36,4.87-1.08,.89-.48,1.59-1.3,2.1-2.46,.38-.82,.56-2.97,.56-6.46V44.64h-5.02c-4.68,0-8.08,.99-10.2,2.97-2.97,2.77-4.85,6.72-5.64,11.84h-1.95v-18.81h62.44Z"/>
      <path class="cls-2" d="M315.79,94.36c2.39,0,4.42,.84,6.07,2.51,1.66,1.67,2.49,3.69,2.49,6.05s-.84,4.37-2.51,6.02c-1.67,1.66-3.69,2.49-6.05,2.49s-4.37-.83-6.02-2.49c-1.66-1.66-2.49-3.67-2.49-6.02s.83-4.37,2.49-6.05c1.66-1.67,3.67-2.51,6.02-2.51Z"/>
      <path class="cls-2" d="M404.47,39.05l.56,23.17h-2.1c-.99-5.81-3.43-10.48-7.3-14.02-3.88-3.54-8.07-5.31-12.58-5.31-3.49,0-6.25,.93-8.28,2.79-2.03,1.86-3.05,4.01-3.05,6.43,0,1.54,.36,2.91,1.08,4.1,.99,1.61,2.58,3.2,4.77,4.77,1.61,1.13,5.31,3.13,11.12,6,8.13,4,13.62,7.77,16.45,11.33,2.8,3.55,4.2,7.62,4.2,12.2,0,5.81-2.26,10.81-6.79,14.99-4.53,4.19-10.28,6.28-17.25,6.28-2.19,0-4.25-.22-6.2-.67-1.95-.44-4.39-1.28-7.33-2.51-1.64-.68-2.99-1.03-4.05-1.03-.89,0-1.83,.34-2.82,1.03-.99,.68-1.79,1.73-2.41,3.13h-1.9v-26.25h1.9c1.5,7.38,4.4,13.01,8.69,16.89,4.29,3.88,8.91,5.82,13.87,5.82,3.83,0,6.88-1.04,9.15-3.13,2.27-2.08,3.41-4.51,3.41-7.28,0-1.64-.44-3.23-1.31-4.77s-2.2-3-3.97-4.38c-1.78-1.38-4.92-3.19-9.43-5.41-6.32-3.11-10.87-5.76-13.64-7.95-2.77-2.19-4.9-4.63-6.38-7.33-1.49-2.7-2.23-5.67-2.23-8.92,0-5.54,2.03-10.25,6.1-14.15,4.07-3.9,9.19-5.84,15.38-5.84,2.26,0,4.44,.27,6.56,.82,1.61,.41,3.56,1.17,5.87,2.28,2.31,1.11,3.92,1.67,4.84,1.67s1.59-.27,2.1-.82c.51-.55,.99-1.86,1.44-3.95h1.54Z"/>
      <path class="cls-2" d="M451.99,108.25v1.9h-36.34v-1.9h2.31c2.02,0,3.64-.36,4.87-1.08,.89-.48,1.57-1.3,2.05-2.46,.38-.82,.56-2.97,.56-6.46V52.53c0-3.55-.19-5.77-.56-6.66-.38-.89-1.14-1.67-2.28-2.33-1.15-.67-2.69-1-4.64-1h-2.31v-1.9h36.34v1.9h-2.31c-2.02,0-3.64,.36-4.87,1.08-.89,.48-1.59,1.3-2.1,2.46-.38,.82-.56,2.97-.56,6.46v45.72c0,3.55,.2,5.78,.59,6.66,.39,.89,1.16,1.67,2.31,2.33,1.14,.67,2.69,1,4.64,1h2.31Z"/>
      <path class="cls-2" d="M480.54,40.64l34.29,43.11v-29.89c0-4.17-.6-6.99-1.79-8.46-1.64-1.98-4.39-2.94-8.25-2.87v-1.9h22.96v1.9c-2.94,.38-4.91,.86-5.92,1.46-1.01,.6-1.79,1.57-2.36,2.92-.56,1.35-.85,3.67-.85,6.95v57.87h-1.74l-47.01-57.87v44.19c0,4,.91,6.7,2.74,8.1,1.83,1.4,3.92,2.1,6.28,2.1h1.64v1.9h-24.66v-1.9c3.83-.03,6.49-.82,8-2.36,1.5-1.54,2.26-4.15,2.26-7.84V49l-1.49-1.85c-1.47-1.85-2.77-3.06-3.9-3.64-1.13-.58-2.75-.9-4.87-.97v-1.9h24.66Z"/>
      <path class="cls-2" d="M558.81,44.64v28.3h1.38c4.41,0,7.6-1.38,9.59-4.15,1.98-2.77,3.25-6.85,3.79-12.25h1.95v36.39h-1.95c-.41-3.96-1.27-7.21-2.59-9.74-1.32-2.53-2.84-4.23-4.59-5.1-1.74-.87-4.27-1.31-7.59-1.31v19.58c0,3.83,.16,6.17,.49,7.02,.32,.85,.93,1.56,1.82,2.1,.89,.55,2.32,.82,4.31,.82h4.15c6.49,0,11.69-1.5,15.61-4.51,3.91-3.01,6.72-7.59,8.43-13.74h1.9l-3.13,22.09h-60.08v-1.9h2.31c2.02,0,3.64-.36,4.87-1.08,.89-.48,1.57-1.3,2.05-2.46,.38-.82,.56-2.97,.56-6.46V52.53c0-3.14-.09-5.07-.26-5.79-.34-1.2-.97-2.12-1.9-2.77-1.3-.96-3.08-1.44-5.33-1.44h-2.31v-1.9h58.18v20.56h-1.95c-.99-5.02-2.38-8.63-4.18-10.82-1.79-2.19-4.33-3.79-7.61-4.82-1.92-.62-5.5-.92-10.76-.92h-7.18Z"/>
      <path class="cls-2" d="M628.12,78.47v19.48c0,3.76,.23,6.13,.69,7.1,.46,.97,1.27,1.75,2.43,2.33,1.16,.58,3.33,.87,6.51,.87v1.9h-35.58v-1.9c3.21,0,5.39-.3,6.54-.9,1.14-.6,1.95-1.38,2.41-2.33,.46-.96,.69-3.31,.69-7.07V52.84c0-3.76-.23-6.13-.69-7.1-.46-.97-1.27-1.75-2.44-2.33-1.16-.58-3.33-.87-6.51-.87v-1.9h32.29c8.41,0,14.56,.58,18.45,1.74,3.9,1.16,7.07,3.31,9.53,6.43,2.46,3.13,3.69,6.79,3.69,11,0,5.13-1.85,9.36-5.54,12.71-2.36,2.12-5.66,3.71-9.89,4.77l16.71,23.53c2.19,3.04,3.74,4.94,4.66,5.69,1.4,1.06,3.02,1.64,4.87,1.74v1.9h-21.89l-22.4-31.68h-4.56Zm0-34.09v30.45h2.92c4.75,0,8.3-.44,10.66-1.31,2.36-.87,4.21-2.44,5.56-4.72,1.35-2.27,2.02-5.24,2.02-8.89,0-5.3-1.24-9.21-3.72-11.74-2.48-2.53-6.47-3.79-11.97-3.79h-5.48Z"/>
      <path class="cls-2" d="M748.48,39.05v24.5h-1.9c-2.29-6.7-5.72-11.79-10.3-15.28s-9.59-5.23-15.02-5.23-9.52,1.46-12.97,4.38c-3.45,2.92-5.9,7-7.33,12.23-1.44,5.23-2.15,10.59-2.15,16.1,0,6.66,.79,12.51,2.36,17.53,1.57,5.02,4.11,8.71,7.61,11.07,3.5,2.36,7.66,3.54,12.48,3.54,1.67,0,3.39-.18,5.15-.54,1.76-.36,3.56-.88,5.41-1.56v-14.46c0-2.73-.19-4.5-.56-5.31-.38-.8-1.15-1.53-2.33-2.18-1.18-.65-2.61-.97-4.28-.97h-1.79v-1.9h33.78v1.9c-2.56,.17-4.35,.52-5.36,1.05-1.01,.53-1.79,1.41-2.33,2.64-.31,.65-.46,2.24-.46,4.77v14.46c-4.44,1.98-9.07,3.48-13.87,4.49-4.8,1.01-9.78,1.51-14.94,1.51-6.6,0-12.07-.9-16.43-2.69-4.36-1.79-8.2-4.15-11.53-7.07-3.33-2.92-5.94-6.21-7.82-9.87-2.39-4.72-3.59-10-3.59-15.84,0-10.46,3.67-19.29,11.02-26.5,7.35-7.21,16.59-10.82,27.73-10.82,3.45,0,6.56,.27,9.33,.82,1.5,.27,3.94,1.05,7.3,2.33s5.36,1.92,5.97,1.92c.96,0,1.85-.35,2.67-1.05,.82-.7,1.57-2.02,2.26-3.97h1.9Z"/>
      <path class="cls-2" d="M796.15,108.25v1.9h-36.34v-1.9h2.31c2.02,0,3.64-.36,4.87-1.08,.89-.48,1.57-1.3,2.05-2.46,.38-.82,.56-2.97,.56-6.46V52.53c0-3.55-.19-5.77-.56-6.66-.38-.89-1.14-1.67-2.28-2.33-1.14-.67-2.69-1-4.64-1h-2.31v-1.9h36.34v1.9h-2.31c-2.02,0-3.64,.36-4.87,1.08-.89,.48-1.59,1.3-2.1,2.46-.38,.82-.56,2.97-.56,6.46v45.72c0,3.55,.2,5.78,.59,6.66,.39,.89,1.16,1.67,2.31,2.33,1.14,.67,2.69,1,4.64,1h2.31Z"/>
    </g>
    <g>
      <path class="cls-2" d="M221.79,185.15h-24.55l-2.92,6.77c-.96,2.26-1.44,4.12-1.44,5.59,0,1.95,.79,3.38,2.36,4.31,.92,.55,3.2,.96,6.82,1.23v1.9h-23.12v-1.9c2.49-.38,4.54-1.41,6.15-3.1,1.61-1.69,3.59-5.19,5.95-10.48l24.86-55.46h.97l25.07,57c2.39,5.4,4.36,8.8,5.9,10.2,1.16,1.06,2.8,1.68,4.92,1.85v1.9h-33.63v-1.9h1.38c2.7,0,4.6-.38,5.69-1.13,.75-.55,1.13-1.33,1.13-2.36,0-.62-.1-1.25-.31-1.9-.07-.31-.58-1.59-1.54-3.84l-3.69-8.66Zm-1.74-3.79l-10.36-23.94-10.66,23.94h21.02Z"/>
      <path class="cls-2" d="M300.62,168.08c6.6,1.54,11.23,3.4,13.89,5.59,3.83,3.11,5.74,7.14,5.74,12.1,0,5.23-2.1,9.55-6.31,12.97-5.16,4.14-12.66,6.2-22.5,6.2h-35.32v-1.9c3.21,0,5.39-.3,6.54-.9,1.14-.6,1.95-1.38,2.41-2.33,.46-.96,.69-3.31,.69-7.07v-45.11c0-3.76-.23-6.13-.69-7.1-.46-.97-1.27-1.75-2.43-2.33-1.16-.58-3.33-.87-6.51-.87v-1.9h33.32c7.96,0,13.6,.71,16.92,2.13,3.31,1.42,5.93,3.54,7.84,6.36,1.91,2.82,2.87,5.82,2.87,9,0,3.35-1.21,6.33-3.64,8.95-2.43,2.61-6.7,4.69-12.82,6.23Zm-18.66,2.61v22.3l-.05,2.56c0,1.85,.47,3.24,1.41,4.18,.94,.94,2.33,1.41,4.18,1.41,2.73,0,5.25-.61,7.56-1.82,2.31-1.21,4.08-2.97,5.31-5.28,1.23-2.31,1.85-4.88,1.85-7.72,0-3.25-.75-6.16-2.26-8.74-1.5-2.58-3.57-4.38-6.2-5.41-2.63-1.03-6.56-1.52-11.79-1.49Zm0-4c4.85,0,8.43-.55,10.74-1.64,2.31-1.09,4.07-2.63,5.31-4.61,1.23-1.98,1.85-4.51,1.85-7.59s-.61-5.6-1.82-7.56c-1.21-1.96-2.95-3.46-5.2-4.49-2.26-1.03-5.88-1.52-10.87-1.49v27.37Z"/>
      <path class="cls-2" d="M367.62,185.15h-24.55l-2.92,6.77c-.96,2.26-1.44,4.12-1.44,5.59,0,1.95,.79,3.38,2.36,4.31,.92,.55,3.2,.96,6.82,1.23v1.9h-23.12v-1.9c2.49-.38,4.54-1.41,6.15-3.1,1.61-1.69,3.59-5.19,5.95-10.48l24.86-55.46h.97l25.07,57c2.39,5.4,4.36,8.8,5.9,10.2,1.16,1.06,2.8,1.68,4.92,1.85v1.9h-33.63v-1.9h1.38c2.7,0,4.6-.38,5.69-1.13,.75-.55,1.13-1.33,1.13-2.36,0-.62-.1-1.25-.31-1.9-.07-.31-.58-1.59-1.54-3.84l-3.69-8.66Zm-1.74-3.79l-10.36-23.94-10.66,23.94h21.02Z"/>
      <path class="cls-2" d="M401.15,204.94v-1.9h2.31c2.02,0,3.56-.32,4.64-.95,1.08-.63,1.87-1.49,2.38-2.59,.31-.72,.46-2.87,.46-6.46v-45.72c0-3.55-.19-5.77-.56-6.66-.38-.89-1.14-1.67-2.28-2.33-1.15-.67-2.69-1-4.64-1h-2.31v-1.9h31.12c8.3,0,14.99,1.13,20.04,3.38,6.18,2.77,10.88,6.95,14.07,12.56,3.2,5.61,4.79,11.94,4.79,19.02,0,4.89-.79,9.39-2.36,13.51-1.57,4.12-3.61,7.52-6.1,10.2-2.49,2.68-5.37,4.84-8.64,6.46-3.26,1.62-7.25,2.88-11.97,3.77-2.08,.41-5.37,.62-9.84,.62h-31.12Zm26.5-65.56v54.23c0,2.87,.14,4.63,.41,5.28,.27,.65,.73,1.15,1.38,1.49,.92,.51,2.26,.77,4,.77,5.71,0,10.06-1.95,13.07-5.84,4.1-5.26,6.15-13.43,6.15-24.5,0-8.92-1.4-16.04-4.2-21.38-2.22-4.17-5.08-7.01-8.56-8.51-2.46-1.06-6.54-1.57-12.25-1.54Z"/>
      <path class="cls-2" d="M514.02,203.04v1.9h-36.34v-1.9h2.31c2.02,0,3.64-.36,4.87-1.08,.89-.48,1.57-1.3,2.05-2.46,.38-.82,.56-2.97,.56-6.46v-45.72c0-3.55-.19-5.77-.56-6.66-.38-.89-1.14-1.67-2.28-2.33-1.15-.67-2.69-1-4.64-1h-2.31v-1.9h36.34v1.9h-2.31c-2.02,0-3.64,.36-4.87,1.08-.89,.48-1.59,1.3-2.1,2.46-.38,.82-.56,2.97-.56,6.46v45.72c0,3.55,.2,5.78,.59,6.66,.39,.89,1.16,1.67,2.31,2.33,1.14,.67,2.69,1,4.64,1h2.31Z"/>
      <path class="cls-2" d="M591.99,133.84l.56,23.17h-2.1c-.99-5.81-3.43-10.48-7.3-14.02-3.88-3.54-8.07-5.31-12.58-5.31-3.49,0-6.25,.93-8.28,2.79-2.03,1.86-3.05,4.01-3.05,6.43,0,1.54,.36,2.91,1.08,4.1,.99,1.61,2.58,3.2,4.77,4.77,1.61,1.13,5.31,3.13,11.12,6,8.13,4,13.62,7.77,16.45,11.33,2.8,3.55,4.2,7.62,4.2,12.2,0,5.81-2.27,10.81-6.79,14.99-4.53,4.19-10.28,6.28-17.25,6.28-2.19,0-4.25-.22-6.2-.67-1.95-.44-4.39-1.28-7.33-2.51-1.64-.68-2.99-1.03-4.05-1.03-.89,0-1.83,.34-2.82,1.03-.99,.68-1.79,1.73-2.41,3.13h-1.9v-26.25h1.9c1.5,7.38,4.4,13.01,8.69,16.89,4.29,3.88,8.91,5.82,13.87,5.82,3.83,0,6.88-1.04,9.15-3.13,2.27-2.08,3.41-4.51,3.41-7.28,0-1.64-.44-3.23-1.31-4.77s-2.2-3-3.97-4.38c-1.78-1.38-4.92-3.19-9.43-5.41-6.32-3.11-10.87-5.76-13.64-7.95-2.77-2.19-4.9-4.63-6.38-7.33-1.49-2.7-2.23-5.67-2.23-8.92,0-5.54,2.03-10.25,6.1-14.15,4.07-3.9,9.19-5.84,15.38-5.84,2.26,0,4.44,.27,6.56,.82,1.61,.41,3.56,1.17,5.87,2.28,2.31,1.11,3.92,1.67,4.84,1.67s1.59-.27,2.1-.82c.51-.55,.99-1.86,1.43-3.95h1.54Z"/>
      <path class="cls-2" d="M629.67,139.43v28.3h1.38c4.41,0,7.6-1.38,9.59-4.15,1.98-2.77,3.25-6.85,3.79-12.25h1.95v36.39h-1.95c-.41-3.96-1.27-7.21-2.59-9.74-1.32-2.53-2.84-4.23-4.59-5.1s-4.27-1.31-7.59-1.31v19.58c0,3.83,.16,6.17,.49,7.02,.32,.85,.93,1.56,1.82,2.1,.89,.55,2.32,.82,4.31,.82h4.15c6.49,0,11.7-1.5,15.61-4.51,3.91-3.01,6.72-7.59,8.43-13.74h1.9l-3.13,22.09h-60.08v-1.9h2.31c2.02,0,3.64-.36,4.87-1.08,.89-.48,1.57-1.3,2.05-2.46,.38-.82,.56-2.97,.56-6.46v-45.72c0-3.14-.09-5.07-.26-5.79-.34-1.2-.97-2.12-1.9-2.77-1.3-.96-3.08-1.44-5.33-1.44h-2.31v-1.9h58.18v20.56h-1.95c-.99-5.02-2.38-8.63-4.18-10.82-1.79-2.19-4.33-3.79-7.61-4.82-1.91-.62-5.5-.92-10.76-.92h-7.18Z"/>
      <path class="cls-2" d="M697.23,135.43l34.29,43.11v-29.89c0-4.17-.6-6.99-1.79-8.46-1.64-1.98-4.39-2.94-8.25-2.87v-1.9h22.96v1.9c-2.94,.38-4.91,.86-5.92,1.46-1.01,.6-1.79,1.57-2.36,2.92-.56,1.35-.85,3.67-.85,6.95v57.87h-1.74l-47.01-57.87v44.19c0,4,.91,6.7,2.74,8.1,1.83,1.4,3.92,2.1,6.28,2.1h1.64v1.9h-24.66v-1.9c3.83-.03,6.49-.82,8-2.36s2.26-4.15,2.26-7.84v-49.06l-1.49-1.85c-1.47-1.85-2.77-3.06-3.9-3.64-1.13-.58-2.75-.9-4.87-.97v-1.9h24.66Z"/>
      <path class="cls-2" d="M813.13,135.43v18.81h-1.84c-1.09-4.34-2.31-7.46-3.64-9.36-1.33-1.9-3.16-3.41-5.48-4.54-1.3-.62-3.57-.92-6.82-.92h-5.18v53.62c0,3.55,.2,5.78,.59,6.66,.39,.89,1.16,1.67,2.31,2.33,1.14,.67,2.71,1,4.69,1h2.31v1.9h-36.4v-1.9h2.31c2.02,0,3.64-.36,4.87-1.08,.89-.48,1.59-1.3,2.1-2.46,.38-.82,.56-2.97,.56-6.46v-53.62h-5.02c-4.68,0-8.08,.99-10.2,2.97-2.97,2.77-4.85,6.72-5.64,11.84h-1.95v-18.81h62.44Z"/>
      <path class="cls-2" d="M855.57,134.46c11.07-.41,20.07,2.82,26.99,9.69,6.92,6.87,10.38,15.46,10.38,25.78,0,8.82-2.58,16.57-7.74,23.27-6.84,8.89-16.49,13.33-28.96,13.33s-22.18-4.24-29.01-12.71c-5.4-6.7-8.1-14.64-8.1-23.84,0-10.32,3.51-18.92,10.53-25.81,7.02-6.89,15.66-10.12,25.91-9.71Zm.62,3.28c-6.36,0-11.19,3.25-14.51,9.74-2.7,5.33-4.05,12.99-4.05,22.96,0,11.86,2.08,20.62,6.25,26.3,2.9,3.96,6.97,5.95,12.2,5.95,3.52,0,6.46-.85,8.82-2.56,3.01-2.19,5.35-5.68,7.02-10.48,1.67-4.8,2.51-11.06,2.51-18.79,0-9.19-.85-16.07-2.56-20.63-1.71-4.56-3.89-7.78-6.54-9.66-2.65-1.88-5.7-2.82-9.15-2.82Z"/>
      <path class="cls-2" d="M946,133.84l.56,23.17h-2.1c-.99-5.81-3.43-10.48-7.3-14.02-3.88-3.54-8.07-5.31-12.58-5.31-3.49,0-6.25,.93-8.28,2.79-2.03,1.86-3.05,4.01-3.05,6.43,0,1.54,.36,2.91,1.08,4.1,.99,1.61,2.58,3.2,4.77,4.77,1.61,1.13,5.31,3.13,11.12,6,8.13,4,13.62,7.77,16.45,11.33,2.8,3.55,4.2,7.62,4.2,12.2,0,5.81-2.26,10.81-6.79,14.99-4.53,4.19-10.28,6.28-17.25,6.28-2.19,0-4.25-.22-6.2-.67-1.95-.44-4.39-1.28-7.33-2.51-1.64-.68-2.99-1.03-4.05-1.03-.89,0-1.83,.34-2.82,1.03-.99,.68-1.79,1.73-2.41,3.13h-1.9v-26.25h1.9c1.5,7.38,4.4,13.01,8.69,16.89,4.29,3.88,8.91,5.82,13.87,5.82,3.83,0,6.88-1.04,9.15-3.13,2.27-2.08,3.41-4.51,3.41-7.28,0-1.64-.44-3.23-1.31-4.77s-2.2-3-3.97-4.38c-1.78-1.38-4.92-3.19-9.43-5.41-6.32-3.11-10.87-5.76-13.64-7.95-2.77-2.19-4.9-4.63-6.38-7.33-1.49-2.7-2.23-5.67-2.23-8.92,0-5.54,2.03-10.25,6.1-14.15,4.07-3.9,9.19-5.84,15.38-5.84,2.26,0,4.44,.27,6.56,.82,1.61,.41,3.56,1.17,5.87,2.28,2.31,1.11,3.92,1.67,4.84,1.67s1.59-.27,2.1-.82c.51-.55,.99-1.86,1.43-3.95h1.54Z"/>
      <path class="cls-2" d="M998.74,185.15h-24.55l-2.92,6.77c-.96,2.26-1.44,4.12-1.44,5.59,0,1.95,.79,3.38,2.36,4.31,.92,.55,3.2,.96,6.82,1.23v1.9h-23.12v-1.9c2.49-.38,4.54-1.41,6.15-3.1,1.61-1.69,3.59-5.19,5.95-10.48l24.86-55.46h.97l25.07,57c2.39,5.4,4.36,8.8,5.9,10.2,1.16,1.06,2.8,1.68,4.92,1.85v1.9h-33.63v-1.9h1.38c2.7,0,4.6-.38,5.69-1.13,.75-.55,1.13-1.33,1.13-2.36,0-.62-.1-1.25-.31-1.9-.07-.31-.58-1.59-1.54-3.84l-3.69-8.66Zm-1.74-3.79l-10.35-23.94-10.66,23.94h21.02Z"/>
    </g>
  </g>
</svg>